<?xml version="1.0" encoding="utf-8"?>
<!-- Generator: Adobe Illustrator 28.3.0, SVG Export Plug-In . SVG Version: 6.00 Build 0)  -->
<svg version="1.1" id="Group_222" xmlns="http://www.w3.org/2000/svg" xmlns:xlink="http://www.w3.org/1999/xlink" x="0px" y="0px"
	 viewBox="0 0 24.74 43.03" style="enable-background:new 0 0 24.74 43.03;" xml:space="preserve">
<style type="text/css">
	.st0{fill:#003287;}
</style>
<path id="Path_26" class="st0" d="M10.26,22.31c1.74-3.15,5.1-5,7.04-7.79c2.06-2.92,0.91-8.38-4.94-8.38c-3.83,0-5.71,2.9-6.5,5.3
	L0,8.97C1.69,3.59,6.7-0.05,12.34,0c5.32,0,8.97,2.42,10.83,5.46c1.58,2.6,2.51,7.47,0.07,11.1c-2.72,4.01-5.32,5.23-6.73,7.81
	c-0.57,1.04-0.79,1.72-0.79,5.07H9.17C9.15,27.68,8.88,24.8,10.26,22.31z M16.9,38.5c0,2.5-2.03,4.53-4.53,4.53S7.84,41,7.84,38.5
	s2.03-4.53,4.53-4.53c0,0,0,0,0,0C14.86,33.98,16.89,36,16.9,38.5z"/>
</svg>
